<svg width="655.0350341796875px" height="120.80984191894531px" xmlns="http://www.w3.org/2000/svg" viewBox="-77.51751708984375 14.595079040527345 655.0350341796875 120.80984191894531" style="background: rgba(0, 0, 0, 0);" preserveAspectRatio="xMidYMid"><defs><linearGradient id="editing-gradient-gradient" x1="0" x2="1" y1="0.5" y2="0.5" gradientUnits="objectBoundingBox"><stop offset="0" stop-color="#00a8ff"></stop><stop offset="1" stop-color="#25ff00"></stop></linearGradient></defs><g><g transform="translate(16.58999264240265, 104.79000091552734)"><path d="M16.45-3.52L16.45-3.52L16.45-3.52Q14.46 1.28 8.13 1.28L8.13 1.28L8.13 1.28Q4.86 1.28 2.82-0.96L2.82-0.96L2.82-0.96Q1.09-2.94 1.09-4.93L1.09-4.93L1.09-4.93Q1.09-10.11 3.46-20.22L3.46-20.22L5.82-32.64L18.82-33.92L14.91-13.70L14.91-13.70Q13.82-8.96 13.82-7.30L13.82-7.30L13.82-7.30Q13.82-3.65 16.45-3.52ZM6.98-41.54L6.98-41.54L6.98-41.54Q6.98-44.03 9.06-45.38L9.06-45.38L9.06-45.38Q11.14-46.72 14.14-46.72L14.14-46.72L14.14-46.72Q17.15-46.72 18.98-45.38L18.98-45.38L18.98-45.38Q20.80-44.03 20.80-41.54L20.80-41.54L20.80-41.54Q20.80-39.04 18.78-37.76L18.78-37.76L18.78-37.76Q16.77-36.48 13.76-36.48L13.76-36.48L13.76-36.48Q10.75-36.48 8.86-37.76L8.86-37.76L8.86-37.76Q6.98-39.04 6.98-41.54ZM67.97 1.28L67.97 1.28L67.97 1.28Q60.22 1.28 60.22-4.74L60.22-4.74L60.22-4.74Q60.22-7.36 61.34-12.45L61.34-12.45L61.34-12.45Q62.46-17.54 62.85-19.58L62.85-19.58L62.85-19.58Q63.74-24.26 63.74-25.73L63.74-25.73L63.74-25.73Q63.74-28.99 61.31-28.99L61.31-28.99L61.31-28.99Q59.71-28.99 58.18-26.78L58.18-26.78L58.18-26.78Q56.64-24.58 55.94-20.16L55.94-20.16L51.97 0L39.49 1.28L42.94-16.13L42.94-16.13Q43.52-19.01 44.03-22.27L44.03-22.27L44.03-22.27Q44.54-25.54 44.54-26.05L44.54-26.05L44.54-26.05Q44.54-28.99 42.37-28.99L42.37-28.99L42.37-28.99Q40.90-28.99 39.30-26.82L39.30-26.82L39.30-26.82Q37.70-24.64 36.80-20.16L36.80-20.16L32.90 0L20.29 1.28L27.01-32.64L37.44-33.92L36.35-27.46L36.35-27.46Q38.02-30.91 41.09-32.42L41.09-32.42L41.09-32.42Q44.16-33.92 48.96-33.92L48.96-33.92L48.96-33.92Q51.71-33.92 53.50-32.58L53.50-32.58L53.50-32.58Q55.30-31.23 55.87-29.06L55.87-29.06L55.87-29.06Q56.96-31.30 59.74-32.61L59.74-32.61L59.74-32.61Q62.53-33.92 65.95-33.92L65.95-33.92L65.95-33.92Q69.38-33.92 71.07-33.18L71.07-33.18L71.07-33.18Q72.77-32.45 73.79-31.23L73.79-31.23L73.79-31.23Q75.52-28.99 75.52-24.90L75.52-24.90L75.52-24.90Q75.52-20.86 73.79-12.48L73.79-12.48L73.79-12.48Q72.90-8.38 72.90-6.88L72.90-6.88L72.90-6.88Q72.90-5.38 73.76-4.48L73.76-4.48L73.76-4.48Q74.62-3.58 75.90-3.46L75.90-3.46L75.90-3.46Q75.26-1.28 73.06 0L73.06 0L73.06 0Q70.85 1.28 67.97 1.28ZM83.62-1.92L83.62-1.92L83.62-1.92Q82.11-3.58 81.44-6.21L81.44-6.21L81.44-6.21Q80.77-8.83 80.77-13.12L80.77-13.12L80.77-13.12Q80.77-17.41 82.24-21.31L82.24-21.31L82.24-21.31Q83.71-25.22 86.40-28.03L86.40-28.03L86.40-28.03Q91.90-33.92 100.99-33.92L100.99-33.92L100.99-33.92Q104.26-33.92 106.62-32.83L106.62-32.83L117.57-33.92L112.83-8.96L112.83-8.96Q112.64-8.19 112.64-6.78L112.64-6.78L112.64-6.78Q112.64-5.38 113.50-4.48L113.50-4.48L113.50-4.48Q114.37-3.58 115.65-3.46L115.65-3.46L115.65-3.46Q115.01-1.28 112.67 0L112.67 0L112.67 0Q110.34 1.28 107.71 1.28L107.71 1.28L107.71 1.28Q105.09 1.28 103.33 0.29L103.33 0.29L103.33 0.29Q101.57-0.70 101.06-2.37L101.06-2.37L101.06-2.37Q100.03-0.77 97.86 0.26L97.86 0.26L97.86 0.26Q95.68 1.28 92.77 1.28L92.77 1.28L92.77 1.28Q89.86 1.28 87.49 0.51L87.49 0.51L87.49 0.51Q85.12-0.26 83.62-1.92ZM97.12-27.90L97.12-27.90L97.12-27.90Q96.38-26.75 95.74-24.80L95.74-24.80L95.74-24.80Q95.10-22.85 94.05-17.63L94.05-17.63L94.05-17.63Q92.99-12.42 92.99-8.70L92.99-8.70L92.99-8.70Q92.99-4.99 93.57-3.90L93.57-3.90L93.57-3.90Q94.14-2.82 95.17-2.82L95.17-2.82L95.17-2.82Q97.22-2.82 98.72-4.77L98.72-4.77L98.72-4.77Q100.22-6.72 100.80-10.18L100.80-10.18L104.19-28.93L104.19-28.93Q102.85-30.08 101.28-30.08L101.28-30.08L101.28-30.08Q99.71-30.08 98.78-29.57L98.78-29.57L98.78-29.57Q97.86-29.06 97.12-27.90ZM125.31-26.75L125.31-26.75L125.31-26.75Q127.49-29.82 130.78-31.87L130.78-31.87L130.78-31.87Q134.08-33.92 138.11-33.92L138.11-33.92L138.11-33.92Q142.14-33.92 144.06-32.64L144.06-32.64L156.61-33.92L152.26-9.34L152.26-9.34Q150.02 3.20 145.28 8.13L145.28 8.13L145.28 8.13Q140.74 12.80 131.90 12.80L131.90 12.80L131.90 12.80Q125.18 12.80 121.34 10.69L121.34 10.69L121.34 10.69Q117.50 8.58 117.50 5.06L117.50 5.06L117.50 5.06Q117.50 2.43 119.49 0.93L119.49 0.93L119.49 0.93Q121.47-0.58 124.54-0.58L124.54-0.58L124.54-0.58Q127.23-0.58 129.28 0.64L129.28 0.64L129.28 0.64Q130.50 1.28 131.07 2.18L131.07 2.18L131.07 2.18Q129.60 3.46 129.60 5.57L129.60 5.57L129.60 5.57Q129.60 8.32 132.16 8.32L132.16 8.32L132.16 8.32Q136.45 8.32 138.88-1.79L138.88-1.79L138.88-1.79Q139.58-4.54 140.16-7.30L140.16-7.30L140.16-7.30Q137.28-3.78 130.75-3.78L130.75-3.78L130.75-3.78Q126.21-3.78 123.58-5.95L123.58-5.95L123.58-5.95Q120.96-8.13 120.96-13.25L120.96-13.25L120.96-13.25Q120.96-16.45 122.05-20.06L122.05-20.06L122.05-20.06Q123.14-23.68 125.31-26.75ZM133.63-13.06L133.63-13.06L133.63-13.06Q133.63-8.70 135.87-8.70L135.87-8.70L135.87-8.70Q137.41-8.70 138.88-10.37L138.88-10.37L138.88-10.37Q140.03-11.71 140.48-13.70L140.48-13.70L143.74-30.14L143.74-30.14Q143.42-30.21 143.10-30.34L143.10-30.34L143.10-30.34Q142.46-30.59 141.63-30.59L141.63-30.59L141.63-30.59Q137.73-30.59 135.42-24.19L135.42-24.19L135.42-24.19Q133.63-19.20 133.63-13.06ZM185.02-10.82L185.02-10.82L185.02-10.82Q186.62-9.73 186.62-7.33L186.62-7.33L186.62-7.33Q186.62-4.93 185.41-3.39L185.41-3.39L185.41-3.39Q184.19-1.86 182.21-0.83L182.21-0.83L182.21-0.83Q178.11 1.28 173.70 1.28L173.70 1.28L173.70 1.28Q169.28 1.28 166.69 0.32L166.69 0.32L166.69 0.32Q164.10-0.64 162.37-2.43L162.37-2.43L162.37-2.43Q158.98-5.82 158.98-12.03L158.98-12.03L158.98-12.03Q158.98-21.70 164.22-27.58L164.22-27.58L164.22-27.58Q169.86-33.92 179.65-33.92L179.65-33.92L179.65-33.92Q185.73-33.92 188.74-31.36L188.74-31.36L188.74-31.36Q190.98-29.44 190.98-26.30L190.98-26.30L190.98-26.30Q190.98-15.04 171.52-15.04L171.52-15.04L171.52-15.04Q171.26-13.38 171.26-11.97L171.26-11.97L171.26-11.97Q171.26-9.02 172.58-7.90L172.58-7.90L172.58-7.90Q173.89-6.78 176.32-6.78L176.32-6.78L176.32-6.78Q178.75-6.78 181.34-7.90L181.34-7.90L181.34-7.90Q183.94-9.02 185.02-10.82ZM171.97-17.79L171.97-17.79L171.97-17.79Q176.51-17.79 179.14-20.61L179.14-20.61L179.14-20.61Q181.76-23.30 181.76-27.58L181.76-27.58L181.76-27.58Q181.76-29.06 181.22-29.86L181.22-29.86L181.22-29.86Q180.67-30.66 179.58-30.66L179.58-30.66L179.58-30.66Q178.50-30.66 177.57-30.24L177.57-30.24L177.57-30.24Q176.64-29.82 175.68-28.42L175.68-28.42L175.68-28.42Q173.31-25.22 171.97-17.79ZM212.29-22.46L212.29-22.46L212.29-22.46Q213.18-24.83 213.18-26.88L213.18-26.88L213.18-26.88Q213.18-30.66 210.11-30.66L210.11-30.66L210.11-30.66Q208.51-30.66 207.20-29.22L207.20-29.22L207.20-29.22Q205.89-27.78 205.89-25.98L205.89-25.98L205.89-25.98Q205.89-24.70 206.91-23.68L206.91-23.68L206.91-23.68Q208.38-22.27 212.16-19.97L212.16-19.97L212.16-19.97Q215.94-17.66 217.38-15.78L217.38-15.78L217.38-15.78Q218.82-13.89 218.82-11.30L218.82-11.30L218.82-11.30Q218.82-8.70 217.57-6.34L217.57-6.34L217.57-6.34Q216.32-3.97 214.08-2.30L214.08-2.30L214.08-2.30Q209.28 1.28 201.60 1.28L201.60 1.28L201.60 1.28Q197.44 1.28 194.24-0.90L194.24-0.90L194.24-0.90Q191.04-3.01 191.04-5.50L191.04-5.50L191.04-5.50Q191.04-8 192.86-9.47L192.86-9.47L192.86-9.47Q194.69-10.94 197.38-10.94L197.38-10.94L197.38-10.94Q200.06-10.94 201.73-9.92L201.73-9.92L201.73-9.92Q200.90-7.81 200.90-6.40L200.90-6.40L200.90-6.40Q200.90-2.18 204.48-2.18L204.48-2.18L204.48-2.18Q206.02-2.18 207.04-3.14L207.04-3.14L207.04-3.14Q208.06-4.10 208.06-5.76L208.06-5.76L208.06-5.76Q208.06-9.02 202.56-12.48L202.56-12.48L202.56-12.48Q198.08-15.42 197.06-16.58L197.06-16.58L197.06-16.58Q195.33-18.62 195.33-21.18L195.33-21.18L195.33-21.18Q195.33-23.74 196.54-26.18L196.54-26.18L196.54-26.18Q197.76-28.61 200.00-30.34L200.00-30.34L200.00-30.34Q204.67-33.92 212.80-33.92L212.80-33.92L212.80-33.92Q216.96-33.92 219.42-32.26L219.42-32.26L219.42-32.26Q221.89-30.59 221.89-27.78L221.89-27.78L221.89-27.78Q221.89-24.96 220.19-23.36L220.19-23.36L220.19-23.36Q218.50-21.76 215.42-21.76L215.42-21.76L215.42-21.76Q213.31-21.76 212.29-22.46ZM263.36-20.61L276.29-21.76L276.29-21.76Q271.68-11.65 271.68 0.06L271.68 0.06L271.68 0.06Q269.95 1.28 267.42 1.28L267.42 1.28L267.42 1.28Q264.90 1.28 263.30 0.10L263.30 0.10L263.30 0.10Q261.70-1.09 261.38-2.30L261.38-2.30L261.38-2.30Q259.78-0.64 257.18 0.32L257.18 0.32L257.18 0.32Q254.59 1.28 251.84 1.28L251.84 1.28L251.84 1.28Q249.09 1.28 246.69 0.38L246.69 0.38L246.69 0.38Q244.29-0.51 242.43-2.50L242.43-2.50L242.43-2.50Q238.34-6.85 238.34-15.10L238.34-15.10L238.34-15.10Q238.34-27.90 245.18-35.58L245.18-35.58L245.18-35.58Q252.22-43.52 264.70-43.52L264.70-43.52L264.70-43.52Q273.34-43.52 276.42-39.04L276.42-39.04L276.42-39.04Q277.38-37.63 277.38-35.94L277.38-35.94L277.38-35.94Q277.38-34.24 276.64-32.80L276.64-32.80L276.64-32.80Q275.90-31.36 274.75-30.21L274.75-30.21L274.75-30.21Q272-27.65 268.61-27.65L268.61-27.65L268.61-27.65Q267.26-27.65 265.98-28.10L265.98-28.10L265.98-28.10Q266.24-30.02 266.24-32.26L266.24-32.26L266.24-32.26Q266.24-34.50 266.08-35.52L266.08-35.52L266.08-35.52Q265.92-36.54 265.54-37.38L265.54-37.38L265.54-37.38Q264.70-39.10 262.88-39.10L262.88-39.10L262.88-39.10Q261.06-39.10 259.04-37.15L259.04-37.15L259.04-37.15Q257.02-35.20 255.42-32L255.42-32L255.42-32Q251.90-24.83 251.90-16.19L251.90-16.19L251.90-16.19Q251.90-12.22 253.44-9.41L253.44-9.41L253.44-9.41Q255.10-6.34 258.05-6.34L258.05-6.34L258.05-6.34Q259.07-6.34 260-6.85L260-6.85L260-6.85Q260.93-7.36 261.31-7.74L261.31-7.74L263.36-20.61ZM282.21-1.92L282.21-1.92L282.21-1.92Q280.70-3.58 280.03-6.21L280.03-6.21L280.03-6.21Q279.36-8.83 279.36-13.12L279.36-13.12L279.36-13.12Q279.36-17.41 280.83-21.31L280.83-21.31L280.83-21.31Q282.30-25.22 284.99-28.03L284.99-28.03L284.99-28.03Q290.50-33.92 299.58-33.92L299.58-33.92L299.58-33.92Q302.85-33.92 305.22-32.83L305.22-32.83L316.16-33.92L311.42-8.96L311.42-8.96Q311.23-8.19 311.23-6.78L311.23-6.78L311.23-6.78Q311.23-5.38 312.10-4.48L312.10-4.48L312.10-4.48Q312.96-3.58 314.24-3.46L314.24-3.46L314.24-3.46Q313.60-1.28 311.26 0L311.26 0L311.26 0Q308.93 1.28 306.30 1.28L306.30 1.28L306.30 1.28Q303.68 1.28 301.92 0.29L301.92 0.29L301.92 0.29Q300.16-0.70 299.65-2.37L299.65-2.37L299.65-2.37Q298.62-0.77 296.45 0.26L296.45 0.26L296.45 0.26Q294.27 1.28 291.36 1.28L291.36 1.28L291.36 1.28Q288.45 1.28 286.08 0.51L286.08 0.51L286.08 0.51Q283.71-0.26 282.21-1.92ZM295.71-27.90L295.71-27.90L295.71-27.90Q294.98-26.75 294.34-24.80L294.34-24.80L294.34-24.80Q293.70-22.85 292.64-17.63L292.64-17.63L292.64-17.63Q291.58-12.42 291.58-8.70L291.58-8.70L291.58-8.70Q291.58-4.99 292.16-3.90L292.16-3.90L292.16-3.90Q292.74-2.82 293.76-2.82L293.76-2.82L293.76-2.82Q295.81-2.82 297.31-4.77L297.31-4.77L297.31-4.77Q298.82-6.72 299.39-10.18L299.39-10.18L302.78-28.93L302.78-28.93Q301.44-30.08 299.87-30.08L299.87-30.08L299.87-30.08Q298.30-30.08 297.38-29.57L297.38-29.57L297.38-29.57Q296.45-29.06 295.71-27.90ZM334.91-3.52L334.91-3.52L334.91-3.52Q332.93 1.28 326.59 1.28L326.59 1.28L326.59 1.28Q323.39 1.28 321.34-0.96L321.34-0.96L321.34-0.96Q319.68-2.82 319.68-4.93L319.68-4.93L319.68-4.93Q319.68-9.73 321.92-20.22L321.92-20.22L326.59-44.80L339.58-46.08L333.38-13.70L333.38-13.70Q332.29-8.96 332.29-7.30L332.29-7.30L332.29-7.30Q332.29-3.65 334.91-3.52ZM355.65-3.52L355.65-3.52L355.65-3.52Q353.66 1.28 347.33 1.28L347.33 1.28L347.33 1.28Q344.13 1.28 342.08-0.96L342.08-0.96L342.08-0.96Q340.42-2.82 340.42-4.93L340.42-4.93L340.42-4.93Q340.42-9.73 342.66-20.22L342.66-20.22L347.33-44.80L360.32-46.08L354.11-13.70L354.11-13.70Q353.02-8.96 353.02-7.30L353.02-7.30L353.02-7.30Q353.02-3.65 355.65-3.52ZM387.01-10.82L387.01-10.82L387.01-10.82Q388.61-9.73 388.61-7.33L388.61-7.33L388.61-7.33Q388.61-4.93 387.39-3.39L387.39-3.39L387.39-3.39Q386.18-1.86 384.19-0.83L384.19-0.83L384.19-0.83Q380.10 1.28 375.68 1.28L375.68 1.28L375.68 1.28Q371.26 1.28 368.67 0.32L368.67 0.32L368.67 0.32Q366.08-0.64 364.35-2.43L364.35-2.43L364.35-2.43Q360.96-5.82 360.96-12.03L360.96-12.03L360.96-12.03Q360.96-21.70 366.21-27.58L366.21-27.58L366.21-27.58Q371.84-33.92 381.63-33.92L381.63-33.92L381.63-33.92Q387.71-33.92 390.72-31.36L390.72-31.36L390.72-31.36Q392.96-29.44 392.96-26.30L392.96-26.30L392.96-26.30Q392.96-15.04 373.50-15.04L373.50-15.04L373.50-15.04Q373.25-13.38 373.25-11.97L373.25-11.97L373.25-11.97Q373.25-9.02 374.56-7.90L374.56-7.90L374.56-7.90Q375.87-6.78 378.30-6.78L378.30-6.78L378.30-6.78Q380.74-6.78 383.33-7.90L383.33-7.90L383.33-7.90Q385.92-9.02 387.01-10.82ZM373.95-17.79L373.95-17.79L373.95-17.79Q378.50-17.79 381.12-20.61L381.12-20.61L381.12-20.61Q383.74-23.30 383.74-27.58L383.74-27.58L383.74-27.58Q383.74-29.06 383.20-29.86L383.20-29.86L383.20-29.86Q382.66-30.66 381.57-30.66L381.57-30.66L381.57-30.66Q380.48-30.66 379.55-30.24L379.55-30.24L379.55-30.24Q378.62-29.82 377.66-28.42L377.66-28.42L377.66-28.42Q375.30-25.22 373.95-17.79ZM415.17-17.98L415.17-17.98L415.17-17.98Q417.47-22.08 417.47-26.24L417.47-26.24L417.47-26.24Q417.47-28.99 415.49-28.99L415.49-28.99L415.49-28.99Q413.95-28.99 412.35-26.37L412.35-26.37L412.35-26.37Q410.69-23.74 410.18-20.35L410.18-20.35L406.85 0L393.60 1.28L400.13-32.64L410.69-33.92L409.54-27.46L409.54-27.46Q412.67-33.92 419.71-33.92L419.71-33.92L419.71-33.92Q423.42-33.92 425.44-32L425.44-32L425.44-32Q427.46-30.08 427.46-26.14L427.46-26.14L427.46-26.14Q427.46-22.21 424.86-19.71L424.86-19.71L424.86-19.71Q422.27-17.22 417.86-17.22L417.86-17.22L417.86-17.22Q415.94-17.22 415.17-17.98ZM448.83-7.23L448.83-7.23L448.83-7.23Q445.50-3.78 439.42-3.78L439.42-3.78L439.42-3.78Q431.81-3.78 430.21-9.34L430.21-9.34L430.21-9.34Q429.70-11.01 429.70-12.86L429.70-12.86L429.70-12.86Q429.70-14.72 430.08-16.64L430.08-16.64L433.09-32.64L446.08-33.92L442.56-15.30L442.56-15.30Q442.43-14.46 442.24-13.57L442.24-13.57L442.24-13.57Q442.05-12.67 442.05-11.74L442.05-11.74L442.05-11.74Q442.05-10.82 442.37-10.21L442.37-10.21L442.37-10.21Q442.69-9.60 443.14-9.22L443.14-9.22L443.14-9.22Q443.90-8.70 445.28-8.70L445.28-8.70L445.28-8.70Q446.66-8.70 447.84-10.37L447.84-10.37L447.84-10.37Q449.02-12.03 449.60-14.91L449.60-14.91L453.12-32.64L465.73-33.92L460.93-8.77L460.93-8.77Q458.56 3.52 453.70 8.38L453.70 8.38L453.70 8.38Q451.20 10.88 447.97 11.87L447.97 11.87L447.97 11.87Q444.74 12.86 440.58 12.86L440.58 12.86L440.58 12.86Q433.86 12.86 430.02 10.75L430.02 10.75L430.02 10.75Q426.18 8.64 426.18 5.12L426.18 5.12L426.18 5.12Q426.18 2.50 428.16 0.99L428.16 0.99L428.16 0.99Q430.14-0.51 433.22-0.51L433.22-0.51L433.22-0.51Q435.90-0.51 437.95 0.64L437.95 0.64L437.95 0.64Q439.17 1.34 439.74 2.24L439.74 2.24L439.74 2.24Q438.27 3.52 438.27 5.63L438.27 5.63L438.27 5.63Q438.27 8.45 440.83 8.45L440.83 8.45L440.83 8.45Q445.06 8.45 447.49-1.28L447.49-1.28L447.49-1.28Q448.19-4.16 448.83-7.23Z" fill="url(#editing-gradient-gradient)"></path></g></g><style>text {
  font-size: 64px;
  font-family: Arial Black;
  dominant-baseline: central;
  text-anchor: middle;
}</style></svg>